<svg fill="#ffffff" xmlns="http://www.w3.org/2000/svg"  viewBox="0 0 50 50" width="50px" height="50px"><path d="M 23.3125 2 C 19.117188 2 15.34375 4.195313 12.75 6.1875 C 11.980469 5.761719 10.359375 5 8.3125 5 C 4.488281 5 1 8.148438 1 13.09375 C 1 14.742188 1.574219 16.4375 2.125 17.75 C 2.675781 19.0625 3.25 20 3.25 20 C 3.28125 20.089844 3.320313 20.171875 3.375 20.25 C 3.003906 21.195313 2.8125 22.25 2.8125 23.40625 C 2.8125 28.152344 4.265625 30.738281 4.8125 31.625 C 4.761719 31.65625 4.707031 31.652344 4.65625 31.6875 C 3.71875 32.3125 3 33.566406 3 35.3125 C 3 36.601563 3.402344 37.636719 4.03125 38.375 C 4.660156 39.113281 5.464844 39.523438 6.21875 39.75 C 7.222656 40.050781 7.625 39.9375 8.15625 39.90625 C 8.289063 40.742188 8.59375 42.0625 9.8125 43.625 C 11.566406 45.871094 15.042969 48 21.3125 48 C 27.609375 48 31.582031 45.605469 33.90625 43.1875 C 35.789063 41.230469 36.46875 39.570313 36.71875 38.875 C 37.328125 38.757813 38.523438 38.480469 40 37.65625 C 41.933594 36.578125 44 34.488281 44 31.1875 C 44 28.621094 42.925781 26.761719 41.65625 25.625 C 41.511719 25.492188 41.367188 25.394531 41.21875 25.28125 L 47.21875 21.75 C 47.402344 21.640625 47.542969 21.476563 47.625 21.28125 C 48.09375 20.878906 48.472656 20.363281 48.71875 19.75 C 49.035156 18.957031 49.171875 17.980469 48.6875 17.0625 C 48.683594 17.058594 48.691406 17.035156 48.6875 17.03125 C 48.449219 16.554688 47.964844 15.757813 47.46875 14.96875 C 47.21875 14.570313 46.984375 14.171875 46.75 13.84375 C 46.515625 13.515625 46.363281 13.296875 46.03125 13.03125 C 46.011719 13.007813 45.992188 12.988281 45.96875 12.96875 C 45.519531 12.667969 45.042969 12.5625 44.34375 12.53125 C 44.167969 12.523438 43.972656 12.515625 43.78125 12.53125 C 43.203125 12.574219 42.566406 12.75 41.90625 13.125 C 41.886719 13.132813 41.863281 13.144531 41.84375 13.15625 C 40.972656 13.71875 40.347656 14.488281 40 15.3125 C 39.65625 16.125 39.59375 17.03125 40.03125 17.84375 C 40.039063 17.847656 40.027344 17.867188 40.03125 17.875 C 40.183594 18.167969 40.316406 18.335938 40.53125 18.625 C 40.753906 18.925781 41.015625 19.285156 41.28125 19.625 C 41.8125 20.308594 42.3125 20.9375 42.3125 20.9375 C 42.324219 20.9375 42.332031 20.9375 42.34375 20.9375 C 42.628906 21.28125 42.960938 21.523438 43.3125 21.71875 L 39.15625 24.1875 C 38.753906 24.070313 38.355469 24 38 24 C 35.925781 24 34.460938 24.554688 33.53125 25.15625 C 33.15625 25.398438 33.191406 25.460938 32.96875 25.6875 C 32.777344 25.558594 32.6875 25.582031 32.3125 25.0625 C 31.84375 24.417969 31.347656 23.410156 31.125 21.8125 C 31.824219 21.679688 32.757813 21.488281 33.8125 21.15625 C 34.738281 20.867188 35.679688 20.488281 36.46875 19.96875 C 37.257813 19.449219 38 18.679688 38 17.59375 C 38 16.824219 37.609375 16.160156 37.09375 15.6875 C 36.578125 15.214844 35.9375 14.875 35.21875 14.59375 C 34.601563 14.351563 33.910156 14.167969 33.1875 14 C 33.566406 13.109375 34 11.796875 34 10.3125 C 34 8.191406 33.257813 6.023438 31.5 4.46875 C 29.742188 2.914063 27.074219 2 23.3125 2 Z M 23.3125 4 C 26.75 4 28.894531 4.824219 30.1875 5.96875 C 31.480469 7.113281 32 8.632813 32 10.3125 C 32 11.605469 31.46875 12.910156 31.15625 13.59375 C 30.839844 13.546875 30.535156 13.511719 30.21875 13.46875 C 26.683594 13.007813 23.1875 13 23.1875 13 C 23.15625 13 23.125 13 23.09375 13 C 23.0625 13 23.03125 13 23 13 C 22.945313 13.007813 22.894531 13.015625 22.84375 13.03125 C 22.832031 13.03125 22.824219 13.03125 22.8125 13.03125 C 22.042969 12.960938 21.261719 12.90625 20.5 12.90625 C 18.128906 12.90625 13.890625 13.148438 10.09375 14.53125 C 8.195313 15.222656 6.386719 16.207031 5.03125 17.65625 C 4.867188 17.832031 4.679688 17.996094 4.53125 18.1875 C 4.359375 17.847656 4.175781 17.460938 3.96875 16.96875 C 3.46875 15.78125 3 14.242188 3 13.09375 C 3 9.039063 5.539063 7 8.3125 7 C 9.414063 7 10.375 7.304688 11.0625 7.59375 C 9.953125 8.589844 9.25 9.34375 9.25 9.34375 C 8.980469 9.605469 8.878906 10 8.988281 10.359375 C 9.101563 10.71875 9.40625 10.988281 9.777344 11.050781 C 10.152344 11.113281 10.527344 10.960938 10.75 10.65625 C 10.75 10.65625 16.980469 4 23.3125 4 Z M 44.28125 14.53125 C 44.636719 14.546875 44.902344 14.691406 44.8125 14.625 C 44.78125 14.605469 44.941406 14.777344 45.125 15.03125 C 45.324219 15.308594 45.542969 15.65625 45.78125 16.03125 C 46.253906 16.785156 46.742188 17.613281 46.90625 17.9375 C 46.917969 17.949219 46.925781 17.957031 46.9375 17.96875 C 47.03125 18.144531 47.023438 18.550781 46.84375 19 C 46.664063 19.449219 46.265625 19.867188 46.15625 19.9375 C 46.121094 19.964844 46.089844 19.996094 46.0625 20.03125 C 46.03125 20.058594 45.566406 20.253906 45.09375 20.21875 C 44.621094 20.183594 44.167969 20.007813 43.875 19.65625 C 43.859375 19.636719 43.386719 19.03125 42.875 18.375 C 42.613281 18.039063 42.332031 17.71875 42.125 17.4375 C 41.917969 17.15625 41.71875 16.8125 41.78125 16.9375 C 41.78125 16.925781 41.78125 16.917969 41.78125 16.90625 C 41.734375 16.824219 41.695313 16.519531 41.875 16.09375 C 42.050781 15.679688 42.402344 15.210938 42.90625 14.875 C 43.429688 14.578125 43.90625 14.515625 44.28125 14.53125 Z M 20.5 14.90625 C 22.71875 14.90625 24.972656 15.191406 26.53125 15.96875 C 28.089844 16.746094 29 17.828125 29 20 C 29 20.238281 29.023438 20.460938 29.03125 20.6875 C 29.03125 20.699219 29.03125 20.707031 29.03125 20.71875 C 28.976563 20.925781 28.984375 21.144531 29.0625 21.34375 C 29.0625 21.355469 29.0625 21.363281 29.0625 21.375 C 29.265625 23.636719 29.953125 25.199219 30.6875 26.21875 C 31.308594 27.078125 31.988281 27.539063 32.34375 27.75 C 32.363281 27.761719 32.386719 27.800781 32.40625 27.8125 C 32.417969 27.8125 32.425781 27.8125 32.4375 27.8125 C 32.457031 27.824219 32.453125 27.835938 32.46875 27.84375 C 32.507813 27.867188 32.550781 27.886719 32.59375 27.90625 C 32.652344 27.933594 32.71875 27.953125 32.78125 27.96875 C 32.78125 27.96875 33.03125 28.03125 33.375 28.34375 C 33.71875 28.65625 34.09375 29.164063 34.09375 30.3125 C 34.09375 30.46875 33.898438 31.234375 33.28125 31.84375 C 32.664063 32.453125 31.671875 33 30 33 C 28.230469 33 26.871094 32.628906 26.03125 32.1875 C 26.023438 32.183594 26.007813 32.191406 26 32.1875 C 26 32.175781 26 32.167969 26 32.15625 C 25.855469 31.828125 25.546875 31.601563 25.1875 31.5625 C 25.058594 31.40625 25.011719 31.273438 25 31.21875 C 25 31.207031 25 31.199219 25 31.1875 C 25 30.171875 25.78125 29.90625 25.78125 29.90625 C 26.164063 29.808594 26.457031 29.496094 26.523438 29.105469 C 26.59375 28.714844 26.421875 28.320313 26.09375 28.101563 C 25.761719 27.882813 25.332031 27.878906 25 28.09375 C 25 28.09375 23.609375 28.753906 23.15625 30.25 C 19.238281 29.960938 17.984375 29 16 29 C 14.933594 29 14.046875 29.394531 13.4375 29.90625 C 12.828125 30.417969 12.453125 30.996094 12.15625 31.4375 C 11.984375 31.691406 11.933594 32.007813 12.027344 32.300781 C 12.117188 32.59375 12.339844 32.828125 12.625 32.9375 C 12.96875 33.074219 13.382813 33.5625 13.78125 34.46875 C 14.179688 35.375 14.5625 36.589844 15.03125 37.8125 C 15.5 39.035156 16.0625 40.277344 17 41.28125 C 17.9375 42.285156 19.296875 43 21 43 C 22.496094 43 23.726563 42.300781 24.5625 41.34375 C 25.398438 40.386719 25.898438 39.175781 26.25 38.03125 C 26.679688 36.632813 26.828125 35.480469 26.90625 34.625 C 27.808594 34.859375 28.828125 35 30 35 C 32.128906 35 33.703125 34.25 34.6875 33.28125 C 35.671875 32.3125 36.09375 31.257813 36.09375 30.3125 C 36.09375 28.664063 35.425781 27.484375 34.71875 26.84375 C 34.707031 26.832031 34.699219 26.824219 34.6875 26.8125 C 35.3125 26.421875 36.324219 26 38 26 C 38.238281 26 39.40625 26.3125 40.3125 27.125 C 41.21875 27.9375 42 29.15625 42 31.1875 C 42 33.683594 40.566406 35.035156 39 35.90625 C 37.433594 36.777344 35.84375 37 35.84375 37 C 35.457031 37.058594 35.136719 37.339844 35.03125 37.71875 C 35.03125 37.71875 34.46875 39.730469 32.46875 41.8125 C 30.46875 43.894531 27.113281 46 21.3125 46 C 15.484375 46 12.777344 44.128906 11.40625 42.375 C 10.035156 40.621094 10 38.96875 10 38.96875 C 9.992188 38.6875 9.867188 38.417969 9.652344 38.234375 C 9.4375 38.050781 9.15625 37.964844 8.875 38 C 8.875 38 7.773438 38.140625 6.78125 37.84375 C 6.285156 37.695313 5.839844 37.460938 5.53125 37.09375 C 5.222656 36.726563 5 36.222656 5 35.3125 C 5 34.058594 5.367188 33.621094 5.78125 33.34375 C 6.195313 33.066406 6.789063 33 7.1875 33 C 7.855469 33 8.46875 33.34375 8.46875 33.34375 C 8.769531 33.566406 9.171875 33.605469 9.507813 33.4375 C 9.847656 33.269531 10.0625 32.929688 10.066406 32.554688 C 10.070313 32.179688 9.863281 31.832031 9.53125 31.65625 C 9.53125 31.65625 8.519531 31 7.1875 31 C 7.0625 31 6.875 31.050781 6.71875 31.0625 C 6.570313 30.855469 4.8125 28.328125 4.8125 23.40625 C 4.8125 21.519531 5.441406 20.128906 6.5 19 C 7.558594 17.871094 9.078125 17.027344 10.78125 16.40625 C 14.1875 15.164063 18.273438 14.90625 20.5 14.90625 Z M 29.0625 15.34375 C 29.371094 15.378906 29.660156 15.398438 29.96875 15.4375 C 30.464844 15.503906 30.957031 15.570313 31.4375 15.65625 C 31.5 15.667969 31.5625 15.675781 31.625 15.6875 C 32.699219 15.882813 33.703125 16.136719 34.46875 16.4375 C 35.046875 16.664063 35.480469 16.941406 35.71875 17.15625 C 35.957031 17.371094 36 17.464844 36 17.59375 C 36 17.707031 35.867188 17.96875 35.34375 18.3125 C 34.820313 18.65625 34.011719 18.992188 33.1875 19.25 C 32.398438 19.496094 31.617188 19.660156 31 19.78125 C 30.945313 17.894531 30.179688 16.410156 29.0625 15.34375 Z M 16.09375 19 C 13.492188 19 12.15625 21.5 12.15625 21.5 C 11.886719 21.800781 11.824219 22.234375 12 22.601563 C 12.171875 22.964844 12.550781 23.1875 12.953125 23.167969 C 13.359375 23.144531 13.710938 22.882813 13.84375 22.5 C 13.84375 22.5 14.894531 21 16.09375 21 C 17.328125 21 18.402344 21.773438 19.4375 22.84375 C 19.910156 23.332031 20.339844 23.878906 20.78125 24.375 C 19.457031 24.714844 18.46875 25.15625 18.46875 25.15625 C 18.136719 25.332031 17.929688 25.679688 17.933594 26.054688 C 17.9375 26.429688 18.152344 26.769531 18.492188 26.9375 C 18.828125 27.105469 19.230469 27.066406 19.53125 26.84375 C 19.53125 26.84375 20.878906 26 23 26 C 23.453125 25.992188 23.84375 25.683594 23.953125 25.242188 C 24.066406 24.804688 23.863281 24.34375 23.46875 24.125 C 23.039063 23.898438 22.039063 22.671875 20.875 21.46875 C 19.710938 20.265625 18.15625 19 16.09375 19 Z M 26.9375 20.9375 C 26.835938 20.921875 26.726563 20.949219 26.625 20.96875 C 25.8125 21.121094 25.359375 22.371094 25.625 23.78125 C 25.890625 25.191406 26.75 26.214844 27.5625 26.0625 C 28.375 25.910156 28.828125 24.628906 28.5625 23.21875 C 28.332031 21.984375 27.652344 21.050781 26.9375 20.9375 Z M 16 31 C 17.203125 31 18.875 31.96875 23.25 32.25 C 23.304688 32.363281 23.394531 32.457031 23.46875 32.5625 C 22.660156 33.136719 22.0625 33.265625 21.375 33.28125 C 20.472656 33.300781 19.355469 33 17.8125 33 C 16.886719 33 16.089844 33.265625 15.53125 33.5 C 15.238281 32.886719 14.871094 32.316406 14.40625 31.84375 C 14.511719 31.714844 14.605469 31.53125 14.71875 31.4375 C 15.035156 31.175781 15.367188 31 16 31 Z M 24.96875 33.96875 C 24.9375 34.519531 24.828125 35.882813 24.34375 37.46875 C 24.042969 38.449219 23.617188 39.363281 23.0625 40 C 22.507813 40.636719 21.90625 41 21 41 C 19.804688 41 19.105469 40.621094 18.46875 39.9375 C 17.832031 39.253906 17.308594 38.222656 16.875 37.09375 C 16.660156 36.53125 16.480469 35.925781 16.28125 35.34375 C 16.671875 35.179688 17.210938 35 17.8125 35 C 19.070313 35 20.140625 35.3125 21.4375 35.28125 C 22.527344 35.257813 23.714844 34.917969 24.96875 33.96875 Z"/></svg>